<?xml version="1.0" standalone="no"?>
<!DOCTYPE svg PUBLIC "-//W3C//DTD SVG 20010904//EN"
 "http://www.w3.org/TR/2001/REC-SVG-20010904/DTD/svg10.dtd">
<svg version="1.0" xmlns="http://www.w3.org/2000/svg"
 width="213.000000pt" height="213.000000pt" viewBox="0 0 213.000000 213.000000"
 preserveAspectRatio="xMidYMid meet">
<metadata>
Created by potrace 1.14, written by Peter Selinger 2001-2017
</metadata>
<g transform="translate(0.000000,213.000000) scale(0.100000,-0.100000)"
fill="#000000" stroke="none">
<path d="M1030 2100 c0 -3 -25 -5 -55 -5 -30 0 -55 -2 -55 -5 0 -4 -10 -6 -22
-7 -25 -1 -54 -7 -78 -16 -48 -18 -83 -26 -91 -21 -5 3 -9 0 -9 -5 0 -6 -9
-11 -20 -11 -11 0 -20 -4 -20 -8 0 -4 -10 -8 -22 -9 -11 -1 -24 -7 -28 -13 -4
-7 -11 -12 -16 -12 -31 -1 -152 -62 -212 -106 -60 -45 -99 -91 -144 -171 -17
-31 -36 -59 -42 -63 -7 -5 -6 -8 2 -8 10 0 10 -4 -2 -15 -21 -22 -137 -261
-138 -285 0 -3 -4 -11 -10 -17 -6 -7 -7 -13 -4 -13 4 0 1 -10 -5 -22 -7 -13
-14 -32 -15 -43 -2 -11 -5 -29 -8 -41 -15 -71 -25 -248 -14 -260 4 -3 4 -16 2
-29 -2 -13 0 -27 6 -30 6 -4 8 -11 4 -16 -3 -5 2 -35 12 -67 10 -31 17 -60 16
-64 -1 -5 4 -8 10 -8 9 0 8 -4 -2 -10 -9 -6 -10 -10 -3 -10 6 0 15 -10 18 -22
12 -39 86 -185 103 -204 10 -11 29 -35 42 -54 33 -47 49 -67 87 -107 18 -19
33 -37 33 -39 0 -13 133 -124 149 -124 6 0 11 -4 11 -10 0 -5 7 -10 15 -10 7
0 18 -7 23 -16 5 -9 11 -15 13 -13 9 5 49 -13 49 -22 0 -5 6 -9 13 -8 28 3 48
-2 42 -11 -3 -6 4 -10 17 -10 13 0 30 -4 38 -10 9 -5 19 -5 26 1 9 7 15 6 21
-3 5 -8 32 -14 73 -15 36 -1 84 -4 108 -7 24 -2 42 0 42 5 0 6 5 7 11 4 5 -4
21 -8 35 -10 18 -2 24 2 22 14 -2 12 -15 16 -46 16 -24 1 -46 -3 -49 -8 -2 -4
-10 -4 -16 1 -7 4 -19 8 -27 7 -8 0 -18 4 -22 10 -5 6 -8 5 -8 -3 0 -7 -4 -11
-8 -8 -4 2 -30 7 -57 10 -27 3 -51 9 -54 14 -3 4 -10 7 -16 8 -27 1 -85 17
-85 23 0 4 -10 8 -22 8 -13 1 -28 9 -34 17 -6 9 -14 13 -17 10 -3 -3 -4 2 -3
12 2 10 8 20 14 22 7 2 10 8 6 13 -3 5 0 9 5 9 6 0 11 5 11 10 0 16 35 47 96
86 30 19 52 39 49 44 -4 6 -2 10 2 10 12 0 8 72 -5 97 -6 11 -8 23 -5 27 3 3
1 6 -6 6 -7 0 -11 7 -9 17 3 17 21 23 72 28 17 1 31 6 33 12 2 6 15 8 28 5 14
-2 25 0 25 6 0 6 8 9 18 7 9 -1 21 0 27 3 9 5 25 8 85 17 14 1 27 4 30 5 3 1
9 2 14 1 4 -1 15 4 24 11 12 10 14 10 8 1 -4 -7 -3 -13 2 -13 5 0 9 -8 9 -17
0 -39 4 -50 24 -71 11 -12 24 -20 30 -17 5 4 9 3 9 -2 0 -9 23 -20 105 -51 28
-10 59 -23 70 -27 11 -4 23 -7 27 -7 11 3 36 -39 42 -70 2 -14 9 -36 16 -47 6
-12 8 -21 5 -21 -3 0 4 -10 15 -22 11 -12 18 -28 16 -35 -3 -7 -1 -13 5 -13 6
0 7 -5 4 -10 -4 -6 -11 -8 -16 -5 -5 4 -9 1 -9 -5 0 -6 -4 -9 -9 -5 -5 3 -15
0 -23 -7 -15 -14 -33 -21 -60 -22 -10 0 -18 -4 -18 -8 0 -4 -3 -7 -7 -7 -5 1
-11 0 -15 -1 -5 -1 -12 -4 -18 -5 -5 -1 -12 -4 -15 -5 -7 -3 -82 -20 -120 -26
-5 -1 -13 -3 -17 -4 -12 -4 -44 -7 -78 -9 -20 -1 -28 -5 -24 -15 5 -13 18 -13
139 -2 17 2 30 4 30 6 0 3 52 11 82 13 12 0 19 5 16 10 -3 5 4 6 16 2 12 -3
21 -2 21 3 0 6 8 9 18 7 9 -1 23 2 30 8 7 5 20 11 30 12 9 1 33 8 52 16 19 7
38 12 43 11 4 -1 7 3 7 9 0 6 7 8 16 5 8 -3 13 -2 10 3 -3 5 2 12 12 16 9 3
17 5 17 4 0 -1 18 7 41 19 45 23 101 69 148 122 17 19 43 47 59 61 15 15 27
33 27 40 0 7 3 10 6 6 7 -6 74 86 74 102 0 5 6 16 13 23 15 16 71 130 69 141
-1 4 3 7 10 7 6 0 9 3 5 6 -3 4 1 20 10 37 8 17 17 44 20 61 3 17 8 36 12 41
12 16 14 242 2 249 -6 4 -8 13 -5 21 5 12 0 44 -21 143 -11 49 -14 59 -33 114
-11 31 -17 59 -14 62 3 3 0 6 -6 6 -7 0 -12 7 -12 15 0 9 -18 43 -40 76 -22
33 -40 65 -40 70 0 5 -4 9 -10 9 -5 0 -10 7 -10 15 0 8 -4 15 -10 15 -5 0 -10
7 -10 15 0 8 -4 15 -9 15 -5 0 -14 13 -21 30 -7 16 -29 45 -50 64 -21 19 -36
37 -32 40 3 3 -1 6 -9 6 -8 0 -21 9 -29 20 -8 11 -18 20 -22 20 -4 0 -23 15
-42 34 -19 19 -37 32 -40 29 -3 -4 -6 2 -6 12 0 10 -3 16 -6 12 -3 -3 -18 5
-33 19 -14 13 -41 30 -58 36 -18 7 -33 16 -33 21 0 4 -4 5 -10 2 -5 -3 -10 -1
-10 4 0 6 -6 11 -14 11 -8 0 -21 7 -30 15 -8 9 -19 16 -23 15 -4 0 -26 6 -48
14 -99 33 -105 35 -98 23 5 -9 3 -9 -8 -1 -8 5 -21 10 -29 9 -8 -1 -25 2 -37
7 -16 5 -23 4 -23 -5 0 -7 -3 -8 -8 -2 -7 10 -132 15 -132 5z m354 -125 c40
-18 155 -55 173 -55 7 0 13 -5 13 -11 0 -5 4 -8 9 -4 5 3 19 -8 30 -24 21 -30
27 -46 14 -38 -5 3 -14 -1 -21 -9 -7 -8 -10 -14 -6 -14 3 0 -12 -17 -34 -37
-60 -56 -81 -73 -92 -73 -6 0 -10 -4 -10 -8 0 -9 -91 -57 -102 -54 -5 1 -8 -2
-8 -7 0 -5 -11 -12 -24 -15 -40 -10 -94 -49 -98 -72 -3 -11 -1 -31 4 -44 5
-13 6 -30 4 -37 -3 -7 -1 -13 3 -13 5 0 8 -8 6 -17 -2 -10 -4 -23 -4 -30 -1
-7 -12 -24 -27 -38 -14 -14 -22 -30 -19 -35 3 -6 1 -10 -6 -10 -6 0 -27 -17
-47 -37 -19 -21 -31 -31 -27 -23 4 8 -2 5 -14 -7 -12 -13 -27 -23 -33 -23 -6
0 -8 -3 -5 -7 4 -3 -5 -21 -19 -40 -14 -18 -23 -33 -20 -33 3 0 1 -11 -4 -25
-5 -14 -6 -25 -1 -25 5 0 11 -9 14 -21 3 -11 15 -23 26 -26 12 -3 21 -9 21
-14 0 -5 6 -9 14 -9 8 0 16 -4 18 -10 2 -5 15 -11 31 -12 15 -1 27 -5 27 -9 0
-9 34 -7 48 4 6 5 12 6 12 2 0 -4 10 5 22 21 13 16 30 38 40 48 10 10 15 23
12 28 -3 5 -2 8 3 7 14 -4 43 13 38 21 -3 5 5 6 17 2 15 -4 19 -2 13 7 -5 9
-2 12 11 8 11 -3 38 -11 62 -18 23 -7 42 -17 42 -23 0 -6 5 -4 10 4 5 8 10 10
10 4 0 -7 14 -11 35 -8 21 2 33 -1 30 -7 -4 -5 20 3 52 17 57 27 153 41 153
23 0 -5 7 -9 15 -9 8 0 15 -6 15 -14 0 -8 4 -16 9 -18 9 -3 14 -28 12 -64 0
-11 -17 -37 -37 -57 -59 -58 -161 -81 -284 -63 -84 13 -95 13 -114 3 -13 -6
-16 -6 -11 3 5 9 2 9 -11 3 -11 -6 -31 -9 -47 -8 -33 2 -71 -33 -87 -80 -6
-18 -10 -37 -9 -41 1 -5 0 -11 -1 -14 -1 -3 -4 -16 -5 -30 -7 -46 -11 -56 -31
-78 -12 -13 -35 -23 -55 -25 -19 -2 -40 -6 -47 -11 -7 -4 -19 -5 -27 -2 -8 3
-15 1 -15 -4 0 -5 -7 -7 -15 -4 -8 4 -15 2 -15 -3 0 -5 -10 -9 -22 -8 -13 1
-39 -3 -58 -10 -19 -6 -42 -11 -50 -10 -8 1 -21 -3 -27 -8 -7 -5 -13 -6 -13
-1 0 5 -5 2 -10 -6 -5 -8 -10 -10 -10 -3 0 6 -9 9 -20 6 -11 -3 -18 -8 -16
-12 2 -3 -10 -7 -27 -8 -18 -1 -51 -5 -74 -8 -26 -5 -43 -4 -43 2 0 5 -15 11
-32 11 -40 2 -60 6 -73 13 -5 3 -25 6 -44 8 -19 1 -41 6 -48 12 -7 6 -20 9
-28 5 -8 -3 -15 -1 -15 4 0 6 -3 9 -7 8 -16 -3 -63 15 -63 24 0 5 -5 6 -11 3
-5 -4 -19 1 -30 11 -10 9 -19 14 -19 11 0 -8 -18 8 -106 94 -50 49 -60 64 -58
90 1 17 4 31 6 33 1 1 29 17 60 36 31 18 59 40 62 49 3 9 14 30 25 46 10 17
16 34 13 39 -2 4 -1 11 4 15 5 3 19 24 30 46 26 49 87 95 92 71 2 -9 7 -14 12
-11 4 3 7 -6 6 -19 -10 -86 71 -38 89 53 8 42 41 86 81 108 21 13 35 23 29 23
-5 0 -4 4 4 9 28 18 15 81 -16 81 -8 0 -27 15 -125 106 -20 19 -42 34 -48 34
-5 0 -10 4 -10 9 0 13 -37 22 -105 28 -33 3 -65 9 -71 14 -16 13 -7 43 22 74
13 14 21 25 18 25 -15 0 81 74 99 76 12 1 22 3 22 4 0 1 26 3 58 5 51 3 60 1
85 -24 33 -34 63 -51 83 -47 14 3 34 11 109 40 40 16 73 29 80 31 30 7 88 30
98 38 8 6 12 6 12 -1 0 -14 90 -48 115 -43 22 4 51 34 61 64 4 11 19 35 35 51
16 17 29 35 29 39 0 5 4 6 9 2 5 -3 12 -1 16 5 4 6 11 8 16 5 5 -4 9 -3 9 2 0
15 121 13 154 -2z"/>
<path d="M1146 1661 c-4 -6 -12 -8 -18 -5 -12 7 -95 -80 -104 -108 -3 -10 -10
-18 -15 -18 -5 0 -9 -6 -9 -14 0 -7 -7 -19 -15 -26 -22 -18 -38 -82 -22 -92 9
-6 9 -8 -1 -8 -10 0 -9 -4 2 -16 11 -11 25 -14 46 -9 16 4 29 10 29 13 -3 20
2 32 11 27 6 -3 10 -2 10 3 0 5 9 12 20 15 31 8 32 9 70 47 19 19 33 39 31 45
-1 5 -5 36 -7 69 -5 64 -17 96 -28 77z"/>
</g>
</svg>
